/vscmnt/brussel_pixiu_data/_data_brussel/112/vsc11236/PredSimResults/SUBJ04opt3D/SUBJ04opt3D_12158527.mot
version=1
nRows=11
nColumns=50
inDegrees=yes
endheader
                time	         pelvis_tilt	         pelvis_list	     pelvis_rotation	           pelvis_tx	           pelvis_ty	           pelvis_tz	       hip_flexion_r	     hip_adduction_r	      hip_rotation_r	        knee_angle_r	       ankle_angle_r	         mtp_angle_r	       hip_flexion_l	     hip_adduction_l	      hip_rotation_l	        knee_angle_l	       ankle_angle_l	         mtp_angle_l	    lumbar_extension	      lumbar_bending	     lumbar_rotation	 ercspn_r/activation	 intobl_r/activation	 extobl_r/activation	    abd_r/activation	    add_r/activation	hamstrings_r/activation	bifemsh_r/activation	glut_max_r/activation	iliopsoas_r/activation	rect_fem_r/activation	  vasti_r/activation	gastroc_r/activation	 soleus_r/activation	tib_ant_r/activation	 ercspn_l/activation	 intobl_l/activation	 extobl_l/activation	    abd_l/activation	    add_l/activation	hamstrings_l/activation	bifemsh_l/activation	glut_max_l/activation	iliopsoas_l/activation	rect_fem_l/activation	  vasti_l/activation	gastroc_l/activation	 soleus_l/activation	tib_ant_l/activation	
          0.65237990	         -2.21046211	         -0.61122099	         -8.62338924	          0.61323710	          0.88099001	          0.01154406	        -12.71879271	         -0.35059338	         -8.21656481	         -8.17921612	         12.54662419	         21.55486986	         29.45583198	         -3.73014922	        -10.77643200	        -12.23958958	          4.12276918	          0.23593117	        -13.62801136	          3.35221412	          7.78638556	          0.04335172	          0.00999999	          0.00999999	          0.05253419	          0.01000001	          0.02494253	          0.16994213	          0.01482207	          0.01217482	          0.01000001	          0.01000000	          0.23799005	          0.24787526	          0.00999999	          0.04039083	          0.21979822	          0.01739680	          0.00999999	          0.29808753	          0.06196536	          0.03121496	          0.03795487	          0.15350553	          0.03256364	          0.03118831	          0.01000001	          0.01300104	          0.32051221	
          0.66542749	         -2.29826683	         -0.58378081	         -8.38908900	          0.62894758	          0.87887435	          0.01108887	        -13.38369765	         -0.49980570	         -8.87728026	         -8.75856702	         12.17033142	         23.00859375	         29.23634599	         -3.58769724	        -10.89288567	        -13.47869200	          3.90340898	          0.22361175	        -13.12671833	          2.75103519	          7.87992009	          0.03894389	          0.00999999	          0.00999999	          0.04315065	          0.01000000	          0.02048736	          0.13958745	          0.01217459	          0.01000021	          0.01000000	          0.00999999	          0.19548081	          0.23892625	          0.00999999	          0.03317632	          0.22127887	          0.01428942	          0.02713545	          0.24484381	          0.06124962	          0.02563942	          0.04202794	          0.12608672	          0.02674719	          0.03236988	          0.01217460	          0.01217463	          0.34758777	
          0.67847509	         -2.37166610	         -0.50533977	         -8.10237667	          0.64492371	          0.87701021	          0.01053784	        -13.95114789	         -0.71557245	         -9.57372168	         -9.56686707	         11.70621936	         24.48367180	         28.95658214	         -3.41632363	        -11.03681734	        -14.59361840	          3.46939040	          0.21539622	        -12.60723957	          2.07472136	          7.94004296	          0.04478277	          0.00999999	          0.00999999	          0.03544318	          0.01000000	          0.01682797	          0.11465466	          0.00999999	          0.01482193	          0.01000000	          0.00999999	          0.16056446	          0.22402544	          0.00999999	          0.02843022	          0.18175453	          0.01173708	          0.04437228	          0.22579008	          0.06464135	          0.02105978	          0.03452100	          0.10356539	          0.02196967	          0.09352066	          0.01000000	          0.01000003	          0.37719431	
          0.69152269	         -2.43146181	         -0.39031806	         -7.76579654	          0.66101750	          0.87557759	          0.00986978	        -14.35366935	         -0.99489856	        -10.30341832	        -10.70176270	         11.10278064	         25.99860180	         28.63050553	         -3.21599345	        -11.27926062	        -15.63583038	          3.04915205	          0.19296400	        -12.09256293	          1.34477323	          7.96484981	          0.05783409	          0.00999999	          0.00999999	          0.02911240	          0.01000000	          0.01382224	          0.09417530	          0.00999999	          0.01217449	          0.01000000	          0.00999999	          0.13188480	          0.19985954	          0.00999999	          0.03521529	          0.14928995	          0.00999999	          0.06815716	          0.20303757	          0.06613092	          0.01729813	          0.02835494	          0.08506677	          0.01804550	          0.15988010	          0.01000000	          0.00999999	          0.40072547	
          0.70457029	         -2.47843158	         -0.23925008	         -7.39152598	          0.67710966	          0.87475592	          0.00908101	        -14.52319910	         -1.35463349	        -11.05929296	        -12.25957810	         10.31192258	         27.55864120	         28.21980507	         -2.97395267	        -11.58839187	        -16.57720565	          2.83769419	          0.16881155	        -11.59704631	          0.56822440	          7.95435230	          0.08720007	          0.00999999	          0.00999999	          0.02391241	          0.01000000	          0.02482453	          0.07735392	          0.01000000	          0.01000000	          0.01000000	          0.01508459	          0.10832783	          0.16416107	          0.00999999	          0.03444761	          0.12262411	          0.00999999	          0.09853744	          0.17673912	          0.06542560	          0.01420839	          0.03542208	          0.06987234	          0.01482225	          0.20638334	          0.01000000	          0.01000000	          0.40385586	
          0.71761789	         -2.51385130	         -0.05258585	         -6.99428480	          0.69304422	          0.87470788	          0.00817302	        -14.39675509	         -1.81409425	        -11.83078212	        -14.31849262	          9.28577869	         29.13525588	         27.72354079	         -2.67267343	        -11.87680028	        -17.40160340	          2.85314823	          0.14899785	        -11.13713252	         -0.24805591	          7.91401039	          0.10929355	          0.00999999	          0.00999999	          0.01964123	          0.01000002	          0.06219519	          0.06353714	          0.01374074	          0.01000000	          0.00999999	          0.02196940	          0.08897856	          0.13483899	          0.00999999	          0.03261298	          0.10072127	          0.00999999	          0.11722393	          0.16562706	          0.06688851	          0.01167053	          0.03482591	          0.05739190	          0.01217474	          0.22500716	          0.01000000	          0.01000000	          0.39348747	
          0.73066548	         -2.53826589	          0.15547585	         -6.58560087	          0.70872551	          0.87546753	          0.00715796	        -13.94983746	         -2.37362249	        -12.61114162	        -16.89748101	          7.98436814	         30.66332269	         27.14317145	         -2.31445846	        -12.07829726	        -18.09518919	          3.06002722	          0.14408049	        -10.72290040	         -1.08328820	          7.84895155	          0.10623817	          0.01000000	          0.00999999	          0.01613295	          0.08926452	          0.08559095	          0.05218828	          0.01462855	          0.01000000	          0.00999999	          0.01804528	          0.07308541	          0.11075435	          0.00999999	          0.03240502	          0.08273066	          0.01000000	          0.12650960	          0.17071759	          0.07098296	          0.01000052	          0.02860541	          0.04714068	          0.01000011	          0.23746145	          0.01000000	          0.00999999	          0.36365707	
          0.74371308	         -2.55222403	          0.35678134	         -6.17354615	          0.72408646	          0.87697212	          0.00605774	        -13.15649889	         -3.02026503	        -13.39712092	        -20.02589665	          6.39340351	         32.02211452	         26.45786573	         -1.91906834	        -12.16059492	        -18.60403143	          3.40265934	          0.18009453	        -10.36302147	         -1.90378093	          7.76062329	          0.10357591	          0.02379606	          0.00999999	          0.01325132	          0.12414458	          0.09377961	          0.04286653	          0.01201563	          0.01000000	          0.00999999	          0.01482207	          0.06003106	          0.09097166	          0.00999999	          0.02674687	          0.06795350	          0.01000000	          0.12910342	          0.16829218	          0.07624805	          0.01000004	          0.02498478	          0.03872052	          0.00999999	          0.24067387	          0.01000002	          0.01000002	          0.33100028	
          0.75676068	         -2.55586211	          0.51702319	         -5.76320757	          0.73906907	          0.87910250	          0.00488724	        -11.99946281	         -3.73771980	        -14.18861703	        -23.73083183	          4.62359655	         32.83266508	         25.64837260	         -1.52378949	        -12.13788506	        -18.87091254	          3.75231193	          0.27941414	        -10.06643153	         -2.66681706	          7.64516932	          0.09422465	          0.03640175	          0.00999999	          0.01088440	          0.16212647	          0.07702896	          0.03520981	          0.00999999	          0.00999999	          0.00999999	          0.01217459	          0.04930844	          0.07472251	          0.02720979	          0.02196941	          0.05581580	          0.01000000	          0.12859560	          0.17035955	          0.08144173	          0.01000006	          0.02617672	          0.03180435	          0.00999999	          0.23203445	          0.01000000	          0.00999999	          0.30283367	
          0.76980828	         -2.54843956	          0.60454661	         -5.35513121	          0.75362309	          0.88168284	          0.00366739	        -10.47198242	         -4.51627473	        -14.98638088	        -28.06744832	          2.96304363	         32.45108022	         24.72703645	         -1.17565944	        -12.04922469	        -18.91349067	          4.07175692	          0.44180100	         -9.84063006	         -3.33451903	          7.49516977	          0.08451230	          0.02989978	          0.00999999	          0.00999999	          0.24663520	          0.06327024	          0.02892071	          0.00999999	          0.01000000	          0.00999999	          0.00999999	          0.04050108	          0.06137574	          0.07529217	          0.01804528	          0.04584610	          0.01000000	          0.12836480	          0.15716836	          0.08633586	          0.01000002	          0.04167604	          0.02612353	          0.00999999	          0.21982470	          0.01000000	          0.00999999	          0.27649485	
          0.78285588	         -2.52849913	          0.59843521	         -4.94465427	          0.76771464	          0.88450773	          0.00244234	         -8.61473424	         -5.33606942	        -15.77851052	        -32.95737803	          1.50585155	         30.63644897	         23.72756672	         -0.91129726	        -11.91109182	        -18.79720008	          4.38346089	          0.69339944	         -9.68857774	         -3.88594883	          7.30253159	          0.10319679	          0.03395299	          0.01000000	          0.00999999	          0.26079234	          0.05196905	          0.02375497	          0.00999999	          0.01000000	          0.00999999	          0.00999999	          0.03326687	          0.05041294	          0.13996148	          0.01482208	          0.03765718	          0.00999999	          0.13158619	          0.12909531	          0.08422539	          0.01000001	          0.06421346	          0.02145740	          0.00999999	          0.20954511	          0.01000000	          0.00999999	          0.25331164	
